<?xml version="1.0" encoding="utf-8"?>
<!-- Generator: Adobe Illustrator 19.2.1, SVG Export Plug-In . SVG Version: 6.00 Build 0)  -->
<svg version="1.1" id="Слой_1" xmlns="http://www.w3.org/2000/svg" xmlns:xlink="http://www.w3.org/1999/xlink" x="0px" y="0px"
	 viewBox="0 0 189 189" style="enable-background:new 0 0 189 189;" xml:space="preserve">
<g>
	<path d="M40.3,130.1c1.1,0.9,6.1,7.5,2.3,16.9c-4.4,10.9-7.4,18.9-4,24.8c1.2,2,3.4,4.4,8.2,5c2.8,0.4,5.2-1.2,6.1-3.5
		c0.2-0.4,0.3-1.1,0.4-1.5c0.4-3-1.5-5.7-4.2-6.6c0.3-3.2,3.4-11,4.5-13.6c6.2-15.1-1.4-28.6-7.4-31.7c-2.9-1.6-6.7-0.5-8.3,2.3
		C36.4,124.7,37.4,128.4,40.3,130.1z"/>
</g>
<g>
	<path d="M73.3,130.1c1.1,0.9,6.1,7.5,2.3,16.9c-4.4,10.9-7.4,18.9-4,24.8c1.2,2,3.4,4.4,8.2,5c2.8,0.4,5.2-1.2,6.1-3.5
		c0.2-0.4,0.3-1.1,0.4-1.5c0.4-3-1.5-5.7-4.2-6.6c0.3-3.2,3.4-11,4.5-13.6c6.2-15.1-1.4-28.6-7.4-31.7c-2.9-1.6-6.7-0.5-8.3,2.3
		C69.4,124.7,70.4,128.4,73.3,130.1z"/>
</g>
<g>
	<path d="M107.5,130.1c1.1,0.9,6.1,7.5,2.3,16.9c-4.4,10.9-7.4,18.9-4,24.8c1.2,2,3.4,4.4,8.2,5c2.8,0.4,5.2-1.2,6.1-3.5
		c0.2-0.4,0.3-1.1,0.4-1.5c0.4-3-1.5-5.7-4.2-6.6c0.3-3.2,3.4-11,4.5-13.6c6.2-15.1-1.4-28.6-7.4-31.7c-2.9-1.6-6.7-0.5-8.3,2.3
		C103.8,124.7,104.8,128.4,107.5,130.1z"/>
</g>
<g>
	<path d="M139.3,130.1c1.1,0.9,6.1,7.5,2.3,16.9c-4.4,10.9-7.4,18.9-4,24.8c1.2,2,3.4,4.4,8.2,5c2.8,0.4,5.2-1.2,6.1-3.5
		c0.2-0.4,0.3-1.1,0.4-1.5c0.4-3-1.5-5.7-4.2-6.6c0.3-3.2,3.4-11,4.5-13.6c6.2-15.1-1.4-28.6-7.4-31.7c-2.9-1.6-6.7-0.5-8.3,2.3
		C135.5,124.7,136.4,128.4,139.3,130.1z"/>
</g>
<g>
	<path d="M172.6,16.4H21c-3.1,0-5.8,2.7-5.8,5.8V103c0,3.1,2.7,5.8,5.8,5.8h151.7c3.1,0,5.8-2.7,5.8-5.8V22.2
		C178.4,19,175.9,16.4,172.6,16.4z M26.8,52.6V28h140v24.6H26.8z M26.8,97.2V64.4h140v32.8H26.8z"/>
	<path d="M152.3,74.9H41.3c-3.1,0-5.8,2.7-5.8,5.8c0,3.1,2.7,5.8,5.8,5.8h111.1c3.1,0,5.8-2.7,5.8-5.8
		C158.1,77.5,155.5,74.9,152.3,74.9z"/>
</g>
</svg>
