<?xml version="1.0" encoding="utf-8"?>
<!-- Generator: Adobe Illustrator 19.2.1, SVG Export Plug-In . SVG Version: 6.00 Build 0)  -->
<svg version="1.1" id="Слой_1" xmlns="http://www.w3.org/2000/svg" xmlns:xlink="http://www.w3.org/1999/xlink" x="0px" y="0px"
	 viewBox="0 0 189 189" style="enable-background:new 0 0 189 189;" xml:space="preserve">
<g>
	<path d="M32,68c0,31.9,25,58.2,56,61.3V157H54v13h80v-13h-34v-27.7c31-3.2,56-29.5,56-61.3V19H32V68z M45,32h28.2L58.7,57.2
		c-1.1,1.9-1.1,4,0,6c1.1,1.9,3.2,2.8,5.4,2.8H86L68.2,87.6c-2.2,2.6-1.8,6.7,0.8,8.9c1.2,1,2.6,1.5,4,1.5c1.8,0,3.6-0.7,4.8-2.2
		l21.4-25.7c2.4-3,2.8-7,1.1-10.5c-1.7-3.5-5.1-5.6-8.9-5.6H74.9l12.7-22H143v36c0,27.1-21.9,49.1-49,49.1S45,95.1,45,68V32z"/>
</g>
</svg>
