<?xml version="1.0" encoding="utf-8"?>
<!-- Generator: Adobe Illustrator 19.2.1, SVG Export Plug-In . SVG Version: 6.00 Build 0)  -->
<svg version="1.1" id="Слой_1" xmlns="http://www.w3.org/2000/svg" xmlns:xlink="http://www.w3.org/1999/xlink" x="0px" y="0px"
	 viewBox="0 0 189 189" style="enable-background:new 0 0 189 189;" xml:space="preserve">
<g>
	<path d="M94.5,12.5c-45.2,0-82,36.8-82,82c0,45.2,36.8,82,82,82s82-36.8,82-82C176.5,49.3,139.7,12.5,94.5,12.5z M94.5,25
		c24.2,0,45.6,12.4,58,31.3l-38.9,22.5c-4.6-5.5-11.4-9-19.1-9c-7.3,0-13.9,3.2-18.5,8.2L37,55.4C49.6,37,70.6,25,94.5,25z
		 M94.5,106.8c-6.8,0-12.3-5.5-12.3-12.3c0-6.8,5.5-12.3,12.3-12.3s12.3,5.5,12.3,12.3C106.8,101.3,101.3,106.8,94.5,106.8z
		 M24.7,94.5c0-10,2.3-19.6,6.1-28.2L70.2,89c-0.4,1.8-0.9,3.6-0.9,5.5c0,11.6,8.6,21.4,18.6,24.1v45.2
		C53,160.7,24.7,130.8,24.7,94.5z M101,163.7v-45.3c10-2.9,18.3-12.5,18.3-23.9c0-1.5-0.1-3-0.4-4.5l39.6-22.8
		c3.6,8.4,5.6,17.6,5.6,27.3C164,130.6,136,160.4,101,163.7z"/>
</g>
</svg>
