<?xml version="1.0" encoding="utf-8"?>
<!-- Generator: Adobe Illustrator 19.2.1, SVG Export Plug-In . SVG Version: 6.00 Build 0)  -->
<svg version="1.1" id="Слой_1" xmlns="http://www.w3.org/2000/svg" xmlns:xlink="http://www.w3.org/1999/xlink" x="0px" y="0px"
	 viewBox="0 0 189 189" style="enable-background:new 0 0 189 189;" xml:space="preserve">
<g>
	<path d="M121.5,42H100V23H88v19H68C33.5,42,5,69.6,5,104v0C5,138.5,33.5,167,68,167h53.5c34.5,0,61.5-28.4,61.5-62.9V104
		C183,69.5,156,42,121.5,42z M121.5,155H68c-27.5,0-49.9-22.5-49.9-50c0-27.5,22.4-50,49.9-50h53.5c27.5,0,49.9,22.5,49.9,50
		S149,155,121.5,155z"/>
	<polygon points="73,78 61,78 61,98 40,98 40,111 61,111 61,131 73,131 73,111 94,111 94,98 73,98 	"/>
	<rect x="126" y="112" width="25" height="13"/>
	<rect x="113" y="87" width="25" height="13"/>
</g>
</svg>
