<?xml version="1.0" encoding="utf-8"?>
<!-- Generator: Adobe Illustrator 19.2.1, SVG Export Plug-In . SVG Version: 6.00 Build 0)  -->
<svg version="1.1" id="Слой_1" xmlns="http://www.w3.org/2000/svg" xmlns:xlink="http://www.w3.org/1999/xlink" x="0px" y="0px"
	 viewBox="0 0 189 189" style="enable-background:new 0 0 189 189;" xml:space="preserve">
<g>
	<path d="M142,43c0-14.7-11.9-26.6-26.6-26.6c-8.7,0-16.5,4.2-21.4,10.7c-4.9-6.5-12.6-10.7-21.4-10.7C58,16.4,46,28.3,46,43
		c0,5.2,1.5,10,4,14H25v58h9v58h120v-58h10V57h-26C140.6,53,142,48.2,142,43z M115.4,28.9c7.8,0,14.1,6.3,14.1,14.1
		c0,7.3-5.5,14-12.5,14h-15.7c0-5,0-10.8,0-14C101.2,35.2,107.6,28.9,115.4,28.9z M58.5,43c0-7.8,6.3-14.1,14.1-14.1
		S86.8,35.2,86.8,43c0,3.2,0,9,0,14H71.1C64,57,58.5,50.3,58.5,43z M70.5,70c0.7,0,1.4-0.1,2.1-0.1c3.6,0,10.4-0.2,15.4-0.3V96H37
		V70H70.5z M47,108h41v53H47V108z M142,161h-41v-53h41V161z M151,96h-50V69.6c5,0,11.1,0.3,14.6,0.3c0.7,0,1.2,0.1,1.9,0.1H151V96z"
		/>
</g>
</svg>
