<?xml version="1.0" encoding="utf-8"?>
<!-- Generator: Adobe Illustrator 19.2.1, SVG Export Plug-In . SVG Version: 6.00 Build 0)  -->
<svg version="1.1" id="Слой_1" xmlns="http://www.w3.org/2000/svg" xmlns:xlink="http://www.w3.org/1999/xlink" x="0px" y="0px"
	 viewBox="0 0 189 189" style="enable-background:new 0 0 189 189;" xml:space="preserve">
<g>
	<path d="M111,91.2v51c0,1.6,1.1,2.9,2.7,2.9h29.3c0,0,2.8-7.5,6-16.7c3.2-9.2,3.6-40.5,3.6-40.5s5.2-0.9,11.2-5.2
		c8.4-5.9,15.4-13.8,16.6-27.5c0.6-6.4,0.8-27.5-11.9-39.2C158.9,7.1,144.6,2.3,115,2.3s-57,11.1-57,11.1s-46.8,4.4-48.2,7
		c-1.4,2.6-2,50.8,0,53.9c2,3.2,23,4.8,47.2,7.8C80.8,85,111,91.2,111,91.2z M160,25.1c7.7,7.1,8.6,22,8,28.9
		c-0.7,8-3.9,12.9-11.4,18.2c-3.4,2.4-6.2,2.8-6.2,2.8c0,0,0,0,0,0c-5.9,1-10.2,6.4-10.3,12.4c-0.2,14.2-1.4,32.2-2.9,36.5
		c-1,3-2,6.1-2.9,8.1H123V91.2c0-5.9-4-11-9.9-12.2c-1.1-0.2-24.7-5-47-8.2l0.2-47.2c8.1-2.8,28-8.8,48.6-8.8
		C144.7,14.8,154.4,20,160,25.1z M21.1,65.1c-0.4-9-0.3-25.2,0.1-34.8c7.7-1.2,20.6-2.7,32.7-3.9l-0.2,42.8
		c-3.5-0.4-6.9-0.8-10.2-1.2C35.9,67.1,26.8,66,21.1,65.1z"/>
	<path d="M120.3,157.4c-0.4,1.4-4.8,8.9-15.3,8.9c-12.2,0-21.1,0.4-25.4,6c-1.5,1.9-2.9,5.1-1.7,9.9c0.7,2.8,3.2,4.5,5.9,4.5
		c0.5,0,1.1-0.1,1.7-0.2c3-0.8,4.9-3.7,4.6-6.7c3.3-1,11.9-1,14.9-1c17,0,26.9-12.6,27.6-19.7c0.4-3.4-2.1-6.6-5.5-7
		C123.9,151.6,120.7,154,120.3,157.4z"/>
	<path d="M132.2,67.9c11.8,0,21.4-9.6,21.4-21.4s-9.6-21.4-21.4-21.4c-11.8,0-21.4,9.6-21.4,21.4S120.4,67.9,132.2,67.9z
		 M132.2,37.6c4.9,0,8.9,4,8.9,8.9s-4,8.9-8.9,8.9s-8.9-4-8.9-8.9S127.3,37.6,132.2,37.6z"/>
</g>
</svg>
