<?xml version="1.0" encoding="utf-8"?>
<!-- Generator: Adobe Illustrator 19.2.1, SVG Export Plug-In . SVG Version: 6.00 Build 0)  -->
<svg version="1.1" id="Слой_1" xmlns="http://www.w3.org/2000/svg" xmlns:xlink="http://www.w3.org/1999/xlink" x="0px" y="0px"
	 viewBox="0 0 189 189" style="enable-background:new 0 0 189 189;" xml:space="preserve">
<g>
	<path d="M157,83.2v-1.8c0-34.2-27.8-62-62-62s-62,27.8-62,62v1.3C22,84,13,93.6,13,105.2v42c0,12.5,11,22.8,23.4,22.8h2.2
		c12.5,0,22.3-10.4,22.3-22.8v-42c0-9.7-6.3-18.1-14.9-21.2c0-0.1-0.1-0.2-0.1-0.3v-2.2c0-27.3,22.2-49.5,49.5-49.5
		S145,54.1,145,81.4v1.8c-10,2.3-18,11.3-18,22v42c0,12.5,11,22.8,23.5,22.8h2.2c12.5,0,22.3-10.4,22.3-22.8v-42
		C175,94.5,167,85.5,157,83.2z M48,147.2c0,5.6-3.8,10.8-9.3,10.8h-2.2c-5.6,0-10.4-5.3-10.4-10.8v-42C26,99.6,30.9,95,36.4,95h2.2
		c5.6,0,9.3,4.6,9.3,10.2V147.2z M162,147.2c0,5.6-3.7,10.8-9.3,10.8h-2.2c-5.6,0-10.5-5.3-10.5-10.8v-42c0-5.6,4.9-10.2,10.5-10.2
		h2.2c5.6,0,9.3,4.6,9.3,10.2V147.2z"/>
</g>
</svg>
