<?xml version="1.0" encoding="utf-8"?>
<!-- Generator: Adobe Illustrator 19.2.1, SVG Export Plug-In . SVG Version: 6.00 Build 0)  -->
<svg version="1.1" id="Слой_1" xmlns="http://www.w3.org/2000/svg" xmlns:xlink="http://www.w3.org/1999/xlink" x="0px" y="0px"
	 viewBox="0 0 189 189" style="enable-background:new 0 0 189 189;" xml:space="preserve">
<path d="M179,117.8L179,117.8l-35.8-84.3c-0.6-1.4-1.7-2.6-3.1-3.3l-22.2-10.6c-1.7-0.8-3.8-0.8-5.5,0l-19.5,9.4l-21.1-9.5
	c-1.8-0.8-3.9-0.7-5.6,0.2L46.1,30.4c-1.3,0.7-2.4,1.9-2.9,3.2L7.8,121.5l0.1,0c-1.4,4-2.1,8.3-2.1,12.7c0,21.8,17.7,39.5,39.5,39.5
	c19.5,0,35.7-14.2,38.9-32.8l0.1,0l9.4-33.7c0.1-0.3,0.3-1.1,1.4-1.1c1.1,0,1.3,0.8,1.3,1.1l7.4,28.4c0.7,21.1,18.1,38.1,39.4,38.1
	c21.8,0,39.5-17.7,39.5-39.5C182.6,128.4,181.3,122.8,179,117.8z M45.2,161c-14.7,0-26.7-12-26.7-26.7s12-26.7,26.7-26.7
	c14.7,0,26.7,12,26.7,26.7S59.9,161,45.2,161z M95.2,93.5c-6.5-0.1-12.1,4.1-13.9,10.4l-2.7,9.6c-7-11.2-19.4-18.6-33.5-18.6
	c-4.9,0-9.6,0.9-14,2.6l22.9-56.9l15.3-8.1l20.9,9.5c1.7,0.8,3.7,0.8,5.4-0.1l19.5-9.4l17.3,8.2l24,56.4c-4.2-1.5-8.6-2.3-13.3-2.3
	c-13.4,0-25.3,6.8-32.4,17l-2-7.7C107.1,97.9,101.7,93.6,95.2,93.5z M143.2,161c-14.7,0-26.7-12-26.7-26.7c0,0,0,0,0,0l0.1,0
	l-0.1-0.3c0.2-14.6,12.1-26.4,26.7-26.4c14.7,0,26.7,12,26.7,26.7S157.9,161,143.2,161z"/>
</svg>
