<?xml version="1.0" encoding="utf-8"?>
<!-- Generator: Adobe Illustrator 19.2.1, SVG Export Plug-In . SVG Version: 6.00 Build 0)  -->
<svg version="1.1" id="Слой_1" xmlns="http://www.w3.org/2000/svg" xmlns:xlink="http://www.w3.org/1999/xlink" x="0px" y="0px"
	 viewBox="0 0 189 189" style="enable-background:new 0 0 189 189;" xml:space="preserve">
<g>
	<path d="M5,184h178V5H5V184z M17,18h154v153H17V18z"/>
	<path d="M58.2,32.3c-15,0-27.1,12.2-27.1,27.1s12.2,27.1,27.1,27.1c15,0,27.1-12.2,27.1-27.1S73.1,32.3,58.2,32.3z M58.2,74.1
		c-8.1,0-14.7-6.6-14.7-14.7s6.6-14.7,14.7-14.7c8.1,0,14.7,6.6,14.7,14.7S66.3,74.1,58.2,74.1z"/>
	<path d="M58.2,104.1c-15,0-27.1,12.2-27.1,27.1s12.2,27.1,27.1,27.1c15,0,27.1-12.2,27.1-27.1S73.1,104.1,58.2,104.1z M58.2,145.9
		c-8.1,0-14.7-6.6-14.7-14.7c0-8.1,6.6-14.7,14.7-14.7c8.1,0,14.7,6.6,14.7,14.7C72.8,139.3,66.3,145.9,58.2,145.9z"/>
	<path d="M130.9,32.3c-15,0-27.1,12.2-27.1,27.1s12.2,27.1,27.1,27.1c15,0,27.1-12.2,27.1-27.1S145.9,32.3,130.9,32.3z M130.9,74.1
		c-8.1,0-14.7-6.6-14.7-14.7s6.6-14.7,14.7-14.7c8.1,0,14.7,6.6,14.7,14.7S139,74.1,130.9,74.1z"/>
	<path d="M130.9,104.1c-15,0-27.1,12.2-27.1,27.1s12.2,27.1,27.1,27.1c15,0,27.1-12.2,27.1-27.1S145.9,104.1,130.9,104.1z
		 M130.9,145.9c-8.1,0-14.7-6.6-14.7-14.7c0-8.1,6.6-14.7,14.7-14.7c8.1,0,14.7,6.6,14.7,14.7C145.5,139.3,139,145.9,130.9,145.9z"
		/>
</g>
</svg>
