<?xml version="1.0" encoding="utf-8"?>
<!-- Generator: Adobe Illustrator 19.2.1, SVG Export Plug-In . SVG Version: 6.00 Build 0)  -->
<svg version="1.1" id="Слой_1" xmlns="http://www.w3.org/2000/svg" xmlns:xlink="http://www.w3.org/1999/xlink" x="0px" y="0px"
	 viewBox="0 0 189 189" style="enable-background:new 0 0 189 189;" xml:space="preserve">
<g>
	<path d="M133.4,189c12.8,0,23.6-11.2,23.6-24v-26.6V47V24.2C157,11.4,146.2,1,133.4,1H55C42.2,1,32,11.4,32,24.2V47v91.4V165
		c0,12.8,10.2,24,23,24H133.4z M144,126H44V60h100V126z M44,24.2C44,18.3,49.1,14,55,14h78.4c5.9,0,10.6,4.3,10.6,10.2V48H44V24.2z
		 M44,165v-26h100v26c0,5.9-4.7,11-10.6,11H55C49.1,176,44,170.9,44,165z"/>
	<path d="M112,149.5c0-0.3-0.2-0.5-0.5-0.5h-39c-0.3,0-0.5,0.2-0.5,0.5v14c0,0.3,0.2,0.5,0.5,0.5h39c0.3,0,0.5-0.2,0.5-0.5V149.5z"
		/>
	<path d="M114,25.5c0-0.3-0.2-0.5-0.5-0.5h-39c-0.3,0-0.5,0.2-0.5,0.5v10c0,0.3,0.2,0.5,0.5,0.5h39c0.3,0,0.5-0.2,0.5-0.5V25.5z"/>
	<path d="M68,25.5c0-0.3-0.2-0.5-0.5-0.5h-9c-0.3,0-0.5,0.2-0.5,0.5v10c0,0.3,0.2,0.5,0.5,0.5h9c0.3,0,0.5-0.2,0.5-0.5V25.5z"/>
	<path d="M131,25.5c0-0.3-0.2-0.5-0.5-0.5h-9c-0.3,0-0.5,0.2-0.5,0.5v10c0,0.3,0.2,0.5,0.5,0.5h9c0.3,0,0.5-0.2,0.5-0.5V25.5z"/>
</g>
</svg>
