<?xml version="1.0" encoding="utf-8"?>
<!-- Generator: Adobe Illustrator 19.2.1, SVG Export Plug-In . SVG Version: 6.00 Build 0)  -->
<svg version="1.1" id="Слой_1" xmlns="http://www.w3.org/2000/svg" xmlns:xlink="http://www.w3.org/1999/xlink" x="0px" y="0px"
	 viewBox="0 0 189 189" style="enable-background:new 0 0 189 189;" xml:space="preserve">
<g>
	<path d="M10,173h169V48h-43V17H53v31H10V173z M65,29h58v19H65V29z M22,60h144v100H22V60z"/>
	<path d="M92.9,71.2c-22.3,0-40.5,18.2-40.5,40.5c0,22.3,18.2,40.5,40.5,40.5s40.5-18.2,40.5-40.5C133.4,89.4,115.2,71.2,92.9,71.2z
		 M92.9,139.7c-15.5,0-28-12.6-28-28s12.6-28,28-28c15.5,0,28,12.6,28,28S108.3,139.7,92.9,139.7z"/>
	<rect x="134" y="71" width="26" height="9"/>
</g>
</svg>
