<?xml version="1.0" encoding="utf-8"?>
<!-- Generator: Adobe Illustrator 19.2.1, SVG Export Plug-In . SVG Version: 6.00 Build 0)  -->
<svg version="1.1" id="Слой_1" xmlns="http://www.w3.org/2000/svg" xmlns:xlink="http://www.w3.org/1999/xlink" x="0px" y="0px"
	 viewBox="0 0 189 189" style="enable-background:new 0 0 189 189;" xml:space="preserve">
<path d="M176.1,116h-8c-2.1,0-4.1,1.1-5.2,2.9c-2,3.2-5.3,5-9.3,5c-6.1,0-11-4.9-11-10.9c0-2.9,1.2-5.6,3.2-7.7
	c2.1-2.1,4.9-3.2,7.7-3.2c3.6,0,7.3,2,9.4,5.3c1.1,1.6,2.9,2.7,4.9,2.7h8c3.4,0,6.2-2.8,6.2-6V51c0-3.3-2.8-6-6.2-6h-45.8
	c4.1-4.2,6.4-10.1,6.4-15.9c0-12.7-10.3-23-23.1-23c-12.7,0-23,10.3-23,23c0,6.1,2.2,11.7,6.4,15.9H51.5c-3.3,0-5.9,2.7-5.9,6v45.9
	c-4.3-4.2-10.3-6.8-16.3-6.8c-12.7,0-23,10.3-23,23s10.3,23,23,23c6.2,0,11.9-2.3,16.3-6.7v46.2c0,3.4,2.6,6,5.9,6h52.9
	c3.4,0,6.2-2.8,6.2-6v-7.8c0-2.1-1.1-4.1-2.9-5.2c-3.2-2-5-5.4-5-9.3c0-6.1,4.9-11,10.9-11c6.1,0,11,4.9,11,11c0,3.6-2,7.3-5.2,9.4
	c-1.6,1.1-2.6,2.9-2.6,4.9v7.7c0,3.4,2.6,6,5.9,6h53.4c3.4,0,6.2-2.8,6.2-6V122C182.2,118.8,179.4,116,176.1,116z M136.6,153.2
	c0-12.7-10.3-23-23.1-23c-12.7,0-23,10.3-23,23c0,6.2,2.3,11.9,6.6,16H57.7V122c0-3.3-2.8-6-6.2-6h-7.7c-2.1,0-4.1,1.1-5.2,2.9
	c-2,3.2-5.3,5-9.3,5c-6.1,0-11-4.9-11-10.9c0-6.1,4.9-11,11-11c3.6,0,7.3,2,9.4,5.3c1.1,1.6,2.9,2.7,4.9,2.7h7.7
	c3.4,0,6.2-2.8,6.2-6V56.9h46.9c3.4,0,6.2-2.8,6.2-6v-7.5c0-2.1-1.1-4.1-2.9-5.2c-3.2-2-5-5.4-5-9.3c0-6.1,4.9-11,10.9-11
	c6.1,0,11,4.9,11,11c0,3.6-2,7.3-5.2,9.4c-1.6,1.1-2.6,2.9-2.6,4.9v7.5c0,3.4,2.6,6,5.9,6h47.6v40.1c-4.3-4.3-10.4-6.9-16.5-6.9
	c-12.7,0-23,10.3-23,23.1c0,6.2,2.3,11.9,6.8,16.2c4.3,4.3,10.1,6.8,16.3,6.8c6.3,0,12.2-2.5,16.5-6.8v40.4h-40.3
	C134.2,165.1,136.6,159.2,136.6,153.2z"/>
</svg>
