<?xml version="1.0" encoding="utf-8"?>
<!-- Generator: Adobe Illustrator 19.2.1, SVG Export Plug-In . SVG Version: 6.00 Build 0)  -->
<svg version="1.1" id="Слой_1" xmlns="http://www.w3.org/2000/svg" xmlns:xlink="http://www.w3.org/1999/xlink" x="0px" y="0px"
	 viewBox="0 0 189 189" style="enable-background:new 0 0 189 189;" xml:space="preserve">
<g>
	<path d="M54.2,116.7c0,22.3,18.2,40.5,40.5,40.5s40.5-18.2,40.5-40.5s-18.2-40.5-40.5-40.5S54.2,94.3,54.2,116.7z M122.7,116.7
		c0,15.5-12.6,28-28,28s-28-12.6-28-28s12.6-28,28-28S122.7,101.2,122.7,116.7z"/>
	<path d="M166,6H23v178h143V6z M154,171H36V18h118V171z"/>
	<rect x="51" y="33" width="25" height="12"/>
	<rect x="88" y="33" width="13" height="12"/>
	<rect x="128" y="33" width="12" height="12"/>
</g>
</svg>
