<?xml version="1.0" encoding="UTF-8" standalone="no"?>
<svg
   xmlns:dc="http://purl.org/dc/elements/1.1/"
   xmlns:cc="http://creativecommons.org/ns#"
   xmlns:rdf="http://www.w3.org/1999/02/22-rdf-syntax-ns#"
   xmlns:svg="http://www.w3.org/2000/svg"
   xmlns="http://www.w3.org/2000/svg"
   xmlns:sodipodi="http://sodipodi.sourceforge.net/DTD/sodipodi-0.dtd"
   xmlns:inkscape="http://www.inkscape.org/namespaces/inkscape"
   version="1.1"
   width="81.000435"
   height="12.364285"
   viewBox="0 0 39.877137 30.435164"
   id="svg4"
   sodipodi:docname="rating_stars_5.svg"
   inkscape:version="0.92.1 r15371">
  <metadata
     id="metadata10">
    <rdf:RDF>
      <cc:Work
         rdf:about="">
        <dc:format>image/svg+xml</dc:format>
        <dc:type
           rdf:resource="http://purl.org/dc/dcmitype/StillImage" />
      </cc:Work>
    </rdf:RDF>
  </metadata>
  <defs
     id="defs8" />
  <sodipodi:namedview
     pagecolor="#ffffff"
     bordercolor="#666666"
     borderopacity="1"
     objecttolerance="10"
     gridtolerance="10"
     guidetolerance="10"
     inkscape:pageopacity="0"
     inkscape:pageshadow="2"
     inkscape:window-width="1366"
     inkscape:window-height="745"
     id="namedview6"
     showgrid="false"
     inkscape:zoom="17.661538"
     inkscape:cx="47.187225"
     inkscape:cy="9.6663121"
     inkscape:window-x="-8"
     inkscape:window-y="-8"
     inkscape:window-maximized="1"
     inkscape:current-layer="svg4"
     showguides="false" />
  <path
     inkscape:connector-curvature="0"
     d="m 35.938034,11.626165 -11.056,-1.607 -4.944,-10.01799977 -4.944,10.01799977 -11.0560006,1.607 8.0000006,7.798 -1.889,11.010999 9.889,-5.198999 9.889,5.198999 -1.889,-11.010999 z"
     id="path2-0"
     style="fill:#ff7f2a;stroke-width:1" />
  <path
     inkscape:connector-curvature="0"
     d="m -47.754274,11.626165 -11.056,-1.607 -4.944,-10.0179997 -4.944,10.0179997 -11.056,1.607 8,7.798 -1.889,11.010999 9.889,-5.198999 9.889,5.198999 -1.889,-11.010999 z"
     id="path2-4"
     style="fill:#ff7f2a;stroke-width:1" />
  <path
     inkscape:connector-curvature="0"
     d="m -5.9081201,11.626165 -11.0559999,-1.607 -4.944,-10.0179998 -4.944,10.0179998 -11.056,1.607 8,7.798 -1.889,11.010999 9.889,-5.198999 9.889,5.198999 -1.889,-11.010999 z"
     id="path2"
     style="fill:#ff7f2a;stroke-width:1" />
  <path
     inkscape:connector-curvature="0"
     d="m 77.784187,11.626165 -11.056,-1.607 -4.944,-10.018 -4.944,10.018 -11.056,1.607 8,7.798 -1.889,11.010999 9.889,-5.198999 9.889,5.198999 -1.889,-11.010999 z"
     id="path2-1"
     style="fill:#ff7f2a;stroke-width:1" />
  <path
     inkscape:connector-curvature="0"
     d="m 119.63034,11.626165 -11.056,-1.607 -4.944,-10.0180004 -4.944,10.0180004 -11.056,1.607 8,7.798 -1.889,11.010999 9.889,-5.198999 9.889,5.198999 -1.889,-11.010999 z"
     id="path2-5"
     style="fill:#ff7f2a;stroke-width:1" />
</svg>
